Coordinates
version=1
nRows=26
nColumns=24
inDegrees=yes

Units are S.I. units (second, meters, Newtons, ...)
Angles are in degrees.

endheader
time	pelvis_tilt	pelvis_list	pelvis_rotation	pelvis_tx	pelvis_ty	pelvis_tz	hip_flexion_r	hip_adduction_r	hip_rotation_r	knee_angle_r	ankle_angle_r	subtalar_angle_r	mtp_angle_r	hip_flexion_l	hip_adduction_l	hip_rotation_l	knee_angle_l	ankle_angle_l	subtalar_angle_l	mtp_angle_l	lumbar_extension	lumbar_bending	lumbar_rotation
      0.77083333	     -4.46099529	      0.75802504	      2.61088456	     -0.35142276	      1.06741327	      0.30911470	     14.13190352	      2.18496744	      0.24218646	    -18.54496472	     10.34017154	     -7.02124285	      3.25034980	     20.15016420	     -3.26551533	     -4.25095710	    -69.01996786	     11.72855353	      3.05983624	      2.23552253	     -6.06856755	      4.65421731	      1.18993946
      0.77500000	     -4.41337213	      0.84081700	      2.51572536	     -0.34614491	      1.06820782	      0.30949230	     13.61233662	      2.13432039	      0.28714127	    -18.21595352	     10.44830773	     -6.90153160	      3.22579335	     20.58416547	     -3.20593545	     -4.41208686	    -68.57979918	     12.02372939	      3.29674695	      2.23820873	     -6.09053414	      4.50983698	      1.36018022
      0.77916667	     -4.37508232	      0.91917160	      2.41263603	     -0.34087304	      1.06893917	      0.30986025	     13.10593025	      2.08716112	      0.33727771	    -17.89102985	     10.55562072	     -6.78925590	      3.19972624	     21.01836456	     -3.15020015	     -4.57586711	    -68.09960472	     12.30519332	      3.53164561	      2.24259334	     -6.09051150	      4.37241017	      1.53738956
      0.78333333	     -4.34204895	      0.99139461	      2.30694533	     -0.33562308	      1.06961105	      0.31023343	     12.60476834	      2.04668806	      0.39553152	    -17.55854486	     10.64277932	     -6.68323339	      3.18103627	     21.45407425	     -3.10539019	     -4.74851016	    -67.58885711	     12.58031249	      3.75219496	      2.24943222	     -6.09390173	      4.23193575	      1.67052175
      0.78750000	     -4.27568479	      1.04809023	      2.19968394	     -0.33037351	      1.07030828	      0.31060253	     12.06108362	      2.02418305	      0.45608771	    -17.21011793	     10.75369967	     -6.59724798	      3.13928746	     21.84319571	     -3.08322975	     -4.92222300	    -67.03706658	     12.82912384	      4.01955281	      2.25900398	     -6.13636091	      4.12241334	      1.93192748
      0.79166667	     -4.25446385	      1.13669854	      2.07939454	     -0.32511711	      1.07090700	      0.31097694	     11.57654530	      1.96366530	      0.52733451	    -16.88547118	     10.83190872	     -6.50132721	      3.12146949	     22.26178295	     -3.02270723	     -5.11265230	    -66.43165454	     13.05997645	      4.24438536	      2.26818097	     -6.11899619	      3.96521464	      2.02942548
      0.79583333	     -4.19713923	      1.20596882	      1.96210311	     -0.31988213	      1.07151598	      0.31134517	     11.04811383	      1.92433948	      0.59745144	    -16.54651744	     10.94871742	     -6.40991933	      3.08406418	     22.63635216	     -2.98866864	     -5.29895582	    -65.79633198	     13.28105603	      4.50926201	      2.28305259	     -6.15294892	      3.84234829	      2.27366845
      0.80000000	     -4.16999632	      1.29081509	      1.83457984	     -0.31464281	      1.07204084	      0.31170414	     10.56117107	      1.86459695	      0.67091429	    -16.22520061	     11.03454817	     -6.32237596	      3.06386637	     23.02654848	     -2.93520268	     -5.49573310	    -65.11459464	     13.47780898	      4.74936735	      2.29502660	     -6.14012668	      3.70317754	      2.39070459
      0.80416667	     -4.13295211	      1.35038056	      1.71411505	     -0.30942811	      1.07251361	      0.31205475	     10.06006611	      1.83121291	      0.74564541	    -15.89255977	     11.14282198	     -6.23608999	      3.03585354	     23.40669274	     -2.91092529	     -5.67990880	    -64.41571800	     13.66776716	      5.00978158	      2.31132707	     -6.15063379	      3.58784147	      2.58866345
      0.80833333	     -4.10389592	      1.42050411	      1.59060401	     -0.30420769	      1.07294951	      0.31239705	      9.57037577	      1.78349291	      0.82098325	    -15.56633860	     11.23223603	     -6.15197479	      3.01617279	     23.77951493	     -2.87254929	     -5.86414153	    -63.67063982	     13.82676254	      5.23705699	      2.32506913	     -6.14975874	      3.45890830	      2.72521376
      0.81250000	     -4.05392106	      1.48040639	      1.46990035	     -0.29901526	      1.07336994	      0.31272388	      9.05521036	      1.74546308	      0.89998361	    -15.22949890	     11.34068407	     -6.06516643	      2.98096002	     24.12379420	     -2.84358709	     -6.04064276	    -62.89944772	     13.97666414	      5.46534001	      2.34705416	     -6.18850843	      3.33606816	      2.95507131
      0.81666667	     -4.03206736	      1.54965382	      1.34477232	     -0.29381660	      1.07370583	      0.31304030	      8.58107084	      1.69316300	      0.97098133	    -14.91566633	     11.43583837	     -5.98287202	      2.96439186	     24.48254911	     -2.80228293	     -6.21961614	    -62.08524991	     14.09750574	      5.67587908	      2.36008220	     -6.17445777	      3.21510966	      3.05568346
      0.82083333	     -4.00604943	      1.61390221	      1.22433434	     -0.28862514	      1.07400647	      0.31334638	      8.10083961	      1.64415538	      1.04177005	    -14.59797420	     11.54060960	     -5.89610826	      2.94888802	     24.82753234	     -2.76351590	     -6.38717643	    -61.23997316	     14.20440885	      5.87460918	      2.37286382	     -6.17535488	      3.09589541	      3.18963986
      0.82500000	     -3.96381284	      1.66184734	      1.10717303	     -0.28345716	      1.07427472	      0.31361797	      7.60390447	      1.60957820	      1.10860303	    -14.27902249	     11.65287684	     -5.81299434	      2.92951452	     25.14938796	     -2.73838097	     -6.54356714	    -60.37280911	     14.30071910	      6.06004545	      2.38781233	     -6.20026110	      3.00050028	      3.35850500
      0.82916667	     -3.94251677	      1.71601121	      0.99294629	     -0.27828449	      1.07447475	      0.31388680	      7.13291380	      1.56536945	      1.17361959	    -13.96788068	     11.75996237	     -5.72621664	      2.91252830	     25.47972750	     -2.70153011	     -6.68796386	    -59.46737428	     14.37114070	      6.20527508	      2.40030123	     -6.19940241	      2.89066955	      3.49434813
      0.83333333	     -3.90989822	      1.77064653	      0.88000883	     -0.27313268	      1.07464327	      0.31414414	      6.65372216	      1.51868402	      1.23319576	    -13.66267653	     11.87836487	     -5.63571682	      2.89493951	     25.78732095	     -2.66152930	     -6.82670642	    -58.53224227	     14.42431230	      6.32855367	      2.41271216	     -6.21598750	      2.78530705	      3.63510763
      0.83750000	     -3.87437762	      1.80982916	      0.77220433	     -0.26798145	      1.07478056	      0.31437220	      6.17049982	      1.48536913	      1.29013716	    -13.35557148	     11.99022804	     -5.54618594	      2.87724916	     26.08148403	     -2.63143337	     -6.94723754	    -57.56892307	     14.46336900	      6.42185650	      2.42389379	     -6.23835858	      2.69760055	      3.76523325
      0.84166667	     -3.85679749	      1.83744449	      0.67210497	     -0.26284267	      1.07481654	      0.31458198	      5.70887038	      1.46171591	      1.33851768	    -13.05247156	     12.12549351	     -5.44866919	      2.84924438	     26.39094882	     -2.60868786	     -7.04994695	    -56.59126448	     14.48928688	      6.47132757	      2.43973406	     -6.24424779	      2.62233329	      3.93123014
      0.84583333	     -3.82684265	      1.86697184	      0.57089239	     -0.25771390	      1.07484935	      0.31478218	      5.23948352	      1.43412542	      1.38295840	    -12.75946778	     12.24315507	     -5.35922914	      2.82442305	     26.67025572	     -2.58045203	     -7.14763238	    -55.57394573	     14.49638276	      6.49766528	      2.45204133	     -6.26275727	      2.55088873	      4.03788805
      0.85000000	     -3.82221012	      1.88934668	      0.47462479	     -0.25259232	      1.07478629	      0.31496296	      4.80098518	      1.41167161	      1.42851425	    -12.47396750	     12.35004519	     -5.27075291	      2.80846984	     26.96792209	     -2.55376182	     -7.22766995	    -54.53346635	     14.49439914	      6.50187648	      2.45825700	     -6.25289941	      2.49172583	      4.11133845
      0.85416667	     -3.82023082	      1.90178455	      0.38280510	     -0.24746950	      1.07466090	      0.31513407	      4.36675761	      1.39891091	      1.47058301	    -12.19248473	     12.47406223	     -5.18088944	      2.79248822	     27.25939156	     -2.53384068	     -7.29318689	    -53.47423504	     14.47728242	      6.45851761	      2.46300090	     -6.24383644	      2.44178700	      4.19755249
      0.85833333	     -3.80510859	      1.90560978	      0.30013590	     -0.24236652	      1.07452032	      0.31526566	      3.91847705	      1.39128683	      1.49405812	    -11.91023428	     12.61577210	     -5.07833789	      2.76692385	     27.52684616	     -2.51302916	     -7.33801347	    -52.38908116	     14.44587219	      6.35994893	      2.46959759	     -6.25499735	      2.40644743	      4.30778860
      0.86250000	     -3.80485901	      1.90434148	      0.21344545	     -0.23726187	      1.07430935	      0.31540752	      3.49230096	      1.38940859	      1.53062222	    -11.64052882	     12.73080011	     -4.98667265	      2.74954307	     27.79696219	     -2.49903427	     -7.37870648	    -51.27943688	     14.41307151	      6.26765533	      2.47171923	     -6.25036792	      2.37244352	      4.36756327
      0.86666667	     -3.81667066	      1.89150927	      0.13536245	     -0.23216364	      1.07402412	      0.31551890	      3.07946088	      1.39782594	      1.56040769	    -11.37230932	     12.86034217	     -4.89348496	      2.73176378	     28.07281424	     -2.48943562	     -7.39838222	    -50.15312699	     14.36836751	      6.12528477	      2.47208279	     -6.23318334	      2.35644882	      4.43237534
      0.87083333	     -3.81050216	      1.87443978	      0.06188547	     -0.22707835	      1.07372992	      0.31562486	      2.64882283	      1.41006884	      1.58181832	    -11.10721376	     12.99370183	     -4.79723306	      2.71179683	     28.31683039	     -2.48001314	     -7.40382692	    -49.00151749	     14.31588127	      5.94925579	      2.47143926	     -6.24184635	      2.34419913	      4.49131943
      0.87500000	     -3.81396003	      1.84607329	     -0.00700283	     -0.22199513	      1.07337783	      0.31570551	      2.22997338	      1.43274310	      1.60343481	    -10.84675130	     13.12568034	     -4.70107005	      2.69041628	     28.56134261	     -2.47652292	     -7.39337106	    -47.83130763	     14.26041585	      5.75537289	      2.46966826	     -6.24199857	      2.34846799	      4.54297942
